<svg width="100%" viewBox="0 0 1001 524" xmlns="http://www.w3.org/2000/svg" xmlns:xlink="http://www.w3.org/1999/xlink">
<g id="graph0" class="graph" transform="scale(1 1) rotate(0) translate(4 519.4)">

<polygon fill="#ffffff" stroke="transparent" points="-4,4 -4,-519.4 996.9551,-519.4 996.9551,4 -4,4"></polygon>
<text text-anchor="middle" x="496.4775" y="-497" font-family="Roboto Condensed, sans-serif" font-size="16.00" fill="#000000">egg-multipart</text>
<!-- egg&#45;multipart@2.9.0 -->
<g id="node1" class="node module-egg_multipart maintainer-atian25 maintainer-coolme200 maintainer-dead_horse maintainer-eggjs_admin maintainer-fengmk2 maintainer-gxcsoccer maintainer-hyj1991 maintainer-killagu maintainer-ngot maintainer-popomore maintainer-thonatos maintainer-wanghx maintainer-xadillax license-mit">

<path fill="none" stroke="#000000" d="M91.5386,-206.3011C91.5386,-206.3011 6.4654,-206.3011 6.4654,-206.3011 3.2317,-206.3011 -.002,-203.0674 -.002,-199.8337 -.002,-199.8337 -.002,-193.3663 -.002,-193.3663 -.002,-190.1326 3.2317,-186.8989 6.4654,-186.8989 6.4654,-186.8989 91.5386,-186.8989 91.5386,-186.8989 94.7723,-186.8989 98.006,-190.1326 98.006,-193.3663 98.006,-193.3663 98.006,-199.8337 98.006,-199.8337 98.006,-203.0674 94.7723,-206.3011 91.5386,-206.3011"></path>
<text text-anchor="middle" x="49.002" y="-193.3" font-family="Roboto Condensed, sans-serif" font-size="11.00" fill="#000000">egg-multipart@2.9.0</text>
</g>
<!-- moment@2.24.0 -->
<g id="node2" class="node module-moment maintainer-ichernev maintainer-maggiepint maintainer-marwahaha maintainer-mj1856 maintainer-timrwood license-mit">

<path fill="none" stroke="#000000" d="M227.8272,-450.3011C227.8272,-450.3011 161.3937,-450.3011 161.3937,-450.3011 158.16,-450.3011 154.9263,-447.0674 154.9263,-443.8337 154.9263,-443.8337 154.9263,-437.3663 154.9263,-437.3663 154.9263,-434.1326 158.16,-430.8989 161.3937,-430.8989 161.3937,-430.8989 227.8272,-430.8989 227.8272,-430.8989 231.0609,-430.8989 234.2946,-434.1326 234.2946,-437.3663 234.2946,-437.3663 234.2946,-443.8337 234.2946,-443.8337 234.2946,-447.0674 231.0609,-450.3011 227.8272,-450.3011"></path>
<text text-anchor="middle" x="194.6104" y="-437.3" font-family="Roboto Condensed, sans-serif" font-size="11.00" fill="#000000">moment@2.24.0</text>
</g>
<!-- egg&#45;multipart@2.9.0&#45;&gt;moment@2.24.0 -->
<g id="edge1" class="edge">

<path fill="none" stroke="#000000" d="M49.6845,-206.4207C52.6464,-241.3244 67.4378,-360.6028 134.004,-422.6 137.3474,-425.7139 141.2058,-428.291 145.3234,-430.4237"></path>
<polygon fill="#000000" stroke="#000000" points="144.0818,-433.6993 154.6522,-434.4181 146.8372,-427.2644 144.0818,-433.6993"></polygon>
</g>
<!-- mz@2.7.0 -->
<g id="node3" class="node module-mz maintainer-evancarroll maintainer-coderhaoxin maintainer-rstacruz maintainer-linusu maintainer-dead_horse maintainer-jongleberry maintainer-swatinem license-mit">

<path fill="none" stroke="#000000" d="M213.7146,-413.3011C213.7146,-413.3011 175.5063,-413.3011 175.5063,-413.3011 172.2727,-413.3011 169.039,-410.0674 169.039,-406.8337 169.039,-406.8337 169.039,-400.3663 169.039,-400.3663 169.039,-397.1326 172.2727,-393.8989 175.5063,-393.8989 175.5063,-393.8989 213.7146,-393.8989 213.7146,-393.8989 216.9482,-393.8989 220.1819,-397.1326 220.1819,-400.3663 220.1819,-400.3663 220.1819,-406.8337 220.1819,-406.8337 220.1819,-410.0674 216.9482,-413.3011 213.7146,-413.3011"></path>
<text text-anchor="middle" x="194.6104" y="-400.3" font-family="Roboto Condensed, sans-serif" font-size="11.00" fill="#000000">mz@2.7.0</text>
</g>
<!-- egg&#45;multipart@2.9.0&#45;&gt;mz@2.7.0 -->
<g id="edge2" class="edge">

<path fill="none" stroke="#000000" d="M54.8405,-206.4434C68.1513,-228.7045 102.0688,-284.4191 134.004,-328.6 148.5965,-348.788 166.7007,-370.8458 179.3044,-385.7795"></path>
<polygon fill="#000000" stroke="#000000" points="176.8779,-388.3289 186.0216,-393.681 182.2112,-383.795 176.8779,-388.3289"></polygon>
</g>
<!-- egg&#45;path&#45;matching@1.0.1 -->
<g id="node4" class="node module-egg_path_matching maintainer-fengmk2 maintainer-dead_horse license-mit">

<path fill="none" stroke="#000000" d="M248.8562,-168.3011C248.8562,-168.3011 140.3647,-168.3011 140.3647,-168.3011 137.131,-168.3011 133.8974,-165.0674 133.8974,-161.8337 133.8974,-161.8337 133.8974,-155.3663 133.8974,-155.3663 133.8974,-152.1326 137.131,-148.8989 140.3647,-148.8989 140.3647,-148.8989 248.8562,-148.8989 248.8562,-148.8989 252.0899,-148.8989 255.3235,-152.1326 255.3235,-155.3663 255.3235,-155.3663 255.3235,-161.8337 255.3235,-161.8337 255.3235,-165.0674 252.0899,-168.3011 248.8562,-168.3011"></path>
<text text-anchor="middle" x="194.6104" y="-155.3" font-family="Roboto Condensed, sans-serif" font-size="11.00" fill="#000000">egg-path-matching@1.0.1</text>
</g>
<!-- egg&#45;multipart@2.9.0&#45;&gt;egg&#45;path&#45;matching@1.0.1 -->
<g id="edge3" class="edge">

<path fill="none" stroke="#000000" d="M86.1219,-186.9127C104.9348,-182.003 127.9712,-175.9911 147.9696,-170.772"></path>
<polygon fill="#000000" stroke="#000000" points="149.0186,-174.1156 157.8107,-168.2038 147.2509,-167.3424 149.0186,-174.1156"></polygon>
</g>
<!-- humanize&#45;bytes@1.0.1 -->
<g id="node5" class="node module-humanize_bytes maintainer-dead_horse license-mit">

<path fill="none" stroke="#000000" d="M241.9153,-319.3011C241.9153,-319.3011 147.3056,-319.3011 147.3056,-319.3011 144.0719,-319.3011 140.8382,-316.0674 140.8382,-312.8337 140.8382,-312.8337 140.8382,-306.3663 140.8382,-306.3663 140.8382,-303.1326 144.0719,-299.8989 147.3056,-299.8989 147.3056,-299.8989 241.9153,-299.8989 241.9153,-299.8989 245.149,-299.8989 248.3827,-303.1326 248.3827,-306.3663 248.3827,-306.3663 248.3827,-312.8337 248.3827,-312.8337 248.3827,-316.0674 245.149,-319.3011 241.9153,-319.3011"></path>
<text text-anchor="middle" x="194.6104" y="-306.3" font-family="Roboto Condensed, sans-serif" font-size="11.00" fill="#000000">humanize-bytes@1.0.1</text>
</g>
<!-- egg&#45;multipart@2.9.0&#45;&gt;humanize&#45;bytes@1.0.1 -->
<g id="edge4" class="edge">

<path fill="none" stroke="#000000" d="M61.4165,-206.2343C86.4545,-225.6651 143.2291,-269.7253 173.9477,-293.5646"></path>
<polygon fill="#000000" stroke="#000000" points="172.1814,-296.6242 182.2274,-299.9901 176.4731,-291.0941 172.1814,-296.6242"></polygon>
</g>
<!-- mz&#45;modules@2.1.0 -->
<g id="node6" class="node module-mz_modules maintainer-fengmk2 maintainer-popomore license-mit">

<path fill="none" stroke="#000000" d="M234.1506,-243.3011C234.1506,-243.3011 155.0703,-243.3011 155.0703,-243.3011 151.8366,-243.3011 148.6029,-240.0674 148.6029,-236.8337 148.6029,-236.8337 148.6029,-230.3663 148.6029,-230.3663 148.6029,-227.1326 151.8366,-223.8989 155.0703,-223.8989 155.0703,-223.8989 234.1506,-223.8989 234.1506,-223.8989 237.3843,-223.8989 240.618,-227.1326 240.618,-230.3663 240.618,-230.3663 240.618,-236.8337 240.618,-236.8337 240.618,-240.0674 237.3843,-243.3011 234.1506,-243.3011"></path>
<text text-anchor="middle" x="194.6104" y="-230.3" font-family="Roboto Condensed, sans-serif" font-size="11.00" fill="#000000">mz-modules@2.1.0</text>
</g>
<!-- egg&#45;multipart@2.9.0&#45;&gt;mz&#45;modules@2.1.0 -->
<g id="edge5" class="edge">

<path fill="none" stroke="#000000" d="M86.8788,-206.2247C105.1766,-210.8743 127.3319,-216.5041 146.7813,-221.4463"></path>
<polygon fill="#000000" stroke="#000000" points="146.1166,-224.8886 156.6706,-223.9593 147.8406,-218.1042 146.1166,-224.8886"></polygon>
</g>
<!-- co&#45;busboy@1.4.0 -->
<g id="node7" class="node module-co_busboy maintainer-jongleberry maintainer-eivifj maintainer-fengmk2 maintainer-tjholowaychuk maintainer-dead_horse maintainer-coderhaoxin license-mit">

<path fill="none" stroke="#000000" d="M230.0957,-131.3011C230.0957,-131.3011 159.1252,-131.3011 159.1252,-131.3011 155.8915,-131.3011 152.6578,-128.0674 152.6578,-124.8337 152.6578,-124.8337 152.6578,-118.3663 152.6578,-118.3663 152.6578,-115.1326 155.8915,-111.8989 159.1252,-111.8989 159.1252,-111.8989 230.0957,-111.8989 230.0957,-111.8989 233.3294,-111.8989 236.5631,-115.1326 236.5631,-118.3663 236.5631,-118.3663 236.5631,-124.8337 236.5631,-124.8337 236.5631,-128.0674 233.3294,-131.3011 230.0957,-131.3011"></path>
<text text-anchor="middle" x="194.6104" y="-118.3" font-family="Roboto Condensed, sans-serif" font-size="11.00" fill="#000000">co-busboy@1.4.0</text>
</g>
<!-- egg&#45;multipart@2.9.0&#45;&gt;co&#45;busboy@1.4.0 -->
<g id="edge6" class="edge">

<path fill="none" stroke="#000000" d="M60.9677,-186.8526C76.8133,-174.3633 106.0283,-152.7602 134.004,-139.6 137.8589,-137.7866 141.938,-136.1093 146.0848,-134.5685"></path>
<polygon fill="#000000" stroke="#000000" points="147.493,-137.7854 155.8095,-131.2214 145.2148,-131.1665 147.493,-137.7854"></polygon>
</g>
<!-- uuid@3.3.3 -->
<g id="node18" class="node module-uuid maintainer-broofa maintainer-defunctzombie maintainer-vvo license-mit">

<path fill="none" stroke="#000000" d="M216.8307,-94.3011C216.8307,-94.3011 172.3902,-94.3011 172.3902,-94.3011 169.1565,-94.3011 165.9228,-91.0674 165.9228,-87.8337 165.9228,-87.8337 165.9228,-81.3663 165.9228,-81.3663 165.9228,-78.1326 169.1565,-74.8989 172.3902,-74.8989 172.3902,-74.8989 216.8307,-74.8989 216.8307,-74.8989 220.0644,-74.8989 223.2981,-78.1326 223.2981,-81.3663 223.2981,-81.3663 223.2981,-87.8337 223.2981,-87.8337 223.2981,-91.0674 220.0644,-94.3011 216.8307,-94.3011"></path>
<text text-anchor="middle" x="194.6104" y="-81.3" font-family="Roboto Condensed, sans-serif" font-size="11.00" fill="#000000">uuid@3.3.3</text>
</g>
<!-- egg&#45;multipart@2.9.0&#45;&gt;uuid@3.3.3 -->
<g id="edge17" class="edge">

<path fill="none" stroke="#000000" d="M55.1893,-186.7334C67.6956,-167.6026 97.8884,-125.3515 134.004,-102.6 140.7298,-98.363 148.5006,-95.0827 156.1869,-92.5569"></path>
<polygon fill="#000000" stroke="#000000" points="157.1781,-95.9137 165.7925,-89.7458 155.212,-89.1954 157.1781,-95.9137"></polygon>
</g>
<!-- stream&#45;wormhole@1.1.0 -->
<g id="node20" class="node module-stream_wormhole maintainer-dead_horse maintainer-fengmk2 license-mit">

<path fill="none" stroke="#000000" d="M245.8541,-57.3011C245.8541,-57.3011 143.3668,-57.3011 143.3668,-57.3011 140.1331,-57.3011 136.8994,-54.0674 136.8994,-50.8337 136.8994,-50.8337 136.8994,-44.3663 136.8994,-44.3663 136.8994,-41.1326 140.1331,-37.8989 143.3668,-37.8989 143.3668,-37.8989 245.8541,-37.8989 245.8541,-37.8989 249.0878,-37.8989 252.3215,-41.1326 252.3215,-44.3663 252.3215,-44.3663 252.3215,-50.8337 252.3215,-50.8337 252.3215,-54.0674 249.0878,-57.3011 245.8541,-57.3011"></path>
<text text-anchor="middle" x="194.6104" y="-44.3" font-family="Roboto Condensed, sans-serif" font-size="11.00" fill="#000000">stream-wormhole@1.1.0</text>
</g>
<!-- egg&#45;multipart@2.9.0&#45;&gt;stream&#45;wormhole@1.1.0 -->
<g id="edge19" class="edge">

<path fill="none" stroke="#000000" d="M52.6157,-186.6798C62.0313,-162.2396 89.7072,-98.716 134.004,-65.6 135.8254,-64.2383 137.749,-62.9792 139.7462,-61.8148"></path>
<polygon fill="#000000" stroke="#000000" points="141.4752,-64.8644 148.8868,-57.2934 138.3716,-58.5901 141.4752,-64.8644"></polygon>
</g>
<!-- object&#45;assign@4.1.1 -->
<g id="node8" class="node module-object_assign maintainer-gaearon maintainer-sindresorhus maintainer-spicyj license-mit">

<path fill="none" stroke="#000000" d="M391.6845,-488.3011C391.6845,-488.3011 308.2849,-488.3011 308.2849,-488.3011 305.0512,-488.3011 301.8176,-485.0674 301.8176,-481.8337 301.8176,-481.8337 301.8176,-475.3663 301.8176,-475.3663 301.8176,-472.1326 305.0512,-468.8989 308.2849,-468.8989 308.2849,-468.8989 391.6845,-468.8989 391.6845,-468.8989 394.9182,-468.8989 398.1518,-472.1326 398.1518,-475.3663 398.1518,-475.3663 398.1518,-481.8337 398.1518,-481.8337 398.1518,-485.0674 394.9182,-488.3011 391.6845,-488.3011"></path>
<text text-anchor="middle" x="349.9847" y="-475.3" font-family="Roboto Condensed, sans-serif" font-size="11.00" fill="#000000">object-assign@4.1.1</text>
</g>
<!-- mz@2.7.0&#45;&gt;object&#45;assign@4.1.1 -->
<g id="edge7" class="edge">

<path fill="none" stroke="#000000" d="M220.3609,-408.0367C231.6465,-410.7673 244.6888,-415.0428 255.2169,-421.6 275.2399,-434.071 271.2472,-448.0439 291.2169,-460.6 293.7985,-462.2232 296.536,-463.7083 299.3626,-465.0659"></path>
<polygon fill="#000000" stroke="#000000" points="298.0376,-468.3057 308.6109,-468.9809 300.7665,-461.8594 298.0376,-468.3057"></polygon>
</g>
<!-- any&#45;promise@1.3.0 -->
<g id="node10" class="node module-any_promise maintainer-kevinbeaty license-mit">

<path fill="none" stroke="#000000" d="M680.7053,-451.3011C680.7053,-451.3011 600.4175,-451.3011 600.4175,-451.3011 597.1838,-451.3011 593.9501,-448.0674 593.9501,-444.8337 593.9501,-444.8337 593.9501,-438.3663 593.9501,-438.3663 593.9501,-435.1326 597.1838,-431.8989 600.4175,-431.8989 600.4175,-431.8989 680.7053,-431.8989 680.7053,-431.8989 683.939,-431.8989 687.1727,-435.1326 687.1727,-438.3663 687.1727,-438.3663 687.1727,-444.8337 687.1727,-444.8337 687.1727,-448.0674 683.939,-451.3011 680.7053,-451.3011"></path>
<text text-anchor="middle" x="640.5614" y="-438.3" font-family="Roboto Condensed, sans-serif" font-size="11.00" fill="#000000">any-promise@1.3.0</text>
</g>
<!-- mz@2.7.0&#45;&gt;any&#45;promise@1.3.0 -->
<g id="edge9" class="edge">

<path fill="none" stroke="#000000" d="M220.4193,-403.6852C278.8968,-404.1627 425.8766,-406.9643 547.6306,-422.6 561.4273,-424.3718 576.2368,-427.0429 589.8888,-429.8269"></path>
<polygon fill="#000000" stroke="#000000" points="589.561,-433.3344 600.0669,-431.9649 591,-426.4839 589.561,-433.3344"></polygon>
</g>
<!-- thenify&#45;all@1.6.0 -->
<g id="node13" class="node module-thenify_all maintainer-jongleberry maintainer-dead_horse license-mit">

<path fill="none" stroke="#000000" d="M385.4644,-451.3011C385.4644,-451.3011 314.505,-451.3011 314.505,-451.3011 311.2713,-451.3011 308.0376,-448.0674 308.0376,-444.8337 308.0376,-444.8337 308.0376,-438.3663 308.0376,-438.3663 308.0376,-435.1326 311.2713,-431.8989 314.505,-431.8989 314.505,-431.8989 385.4644,-431.8989 385.4644,-431.8989 388.6981,-431.8989 391.9318,-435.1326 391.9318,-438.3663 391.9318,-438.3663 391.9318,-444.8337 391.9318,-444.8337 391.9318,-448.0674 388.6981,-451.3011 385.4644,-451.3011"></path>
<text text-anchor="middle" x="349.9847" y="-438.3" font-family="Roboto Condensed, sans-serif" font-size="11.00" fill="#000000">thenify-all@1.6.0</text>
</g>
<!-- mz@2.7.0&#45;&gt;thenify&#45;all@1.6.0 -->
<g id="edge12" class="edge">

<path fill="none" stroke="#000000" d="M220.2673,-409.8749C242.0495,-415.2022 273.9314,-422.9996 300.6362,-429.5308"></path>
<polygon fill="#000000" stroke="#000000" points="300.0406,-432.9882 310.5858,-431.9642 301.7036,-426.1886 300.0406,-432.9882"></polygon>
</g>
<!-- path&#45;to&#45;regexp@1.7.0 -->
<g id="node17" class="node module-path_to_regexp maintainer-amasad maintainer-anthonyshort maintainer-blakeembrey maintainer-calvinfo maintainer-clintwood maintainer-coreh maintainer-cristiandouce maintainer-defunctzombie maintainer-dfcreative maintainer-dominicbarnes maintainer-dougwilson maintainer-forbeslindesay maintainer-ianstormtaylor maintainer-jonathanong maintainer-jongleberry maintainer-juliangruber maintainer-kelonye maintainer-mattmueller maintainer-nami_doc maintainer-queckezz maintainer-rauchg maintainer-retrofox maintainer-stagas maintainer-stephenmathieson maintainer-swatinem maintainer-thehydroimpulse maintainer-timaschew maintainer-timoxley maintainer-tjholowaychuk maintainer-tootallnate maintainer-trevorgerhardt maintainer-yields license-mit">

<path fill="none" stroke="#000000" d="M541.1024,-130.3011C541.1024,-130.3011 451.2807,-130.3011 451.2807,-130.3011 448.0471,-130.3011 444.8134,-127.0674 444.8134,-123.8337 444.8134,-123.8337 444.8134,-117.3663 444.8134,-117.3663 444.8134,-114.1326 448.0471,-110.8989 451.2807,-110.8989 451.2807,-110.8989 541.1024,-110.8989 541.1024,-110.8989 544.336,-110.8989 547.5697,-114.1326 547.5697,-117.3663 547.5697,-117.3663 547.5697,-123.8337 547.5697,-123.8337 547.5697,-127.0674 544.336,-130.3011 541.1024,-130.3011"></path>
<text text-anchor="middle" x="496.1915" y="-117.3" font-family="Roboto Condensed, sans-serif" font-size="11.00" fill="#000000">path-to-regexp@1.7.0</text>
</g>
<!-- egg&#45;path&#45;matching@1.0.1&#45;&gt;path&#45;to&#45;regexp@1.7.0 -->
<g id="edge16" class="edge">

<path fill="none" stroke="#000000" d="M255.2771,-150.9558C307.3624,-144.393 382.1075,-134.9749 434.4901,-128.3745"></path>
<polygon fill="#000000" stroke="#000000" points="435.1712,-131.8165 444.6551,-127.0937 434.296,-124.8714 435.1712,-131.8165"></polygon>
</g>
<!-- bytes@2.2.0 -->
<g id="node19" class="node module-bytes maintainer-tjholowaychuk maintainer-dougwilson license-mit">

<path fill="none" stroke="#000000" d="M374.3659,-375.3011C374.3659,-375.3011 325.6035,-375.3011 325.6035,-375.3011 322.3698,-375.3011 319.1361,-372.0674 319.1361,-368.8337 319.1361,-368.8337 319.1361,-362.3663 319.1361,-362.3663 319.1361,-359.1326 322.3698,-355.8989 325.6035,-355.8989 325.6035,-355.8989 374.3659,-355.8989 374.3659,-355.8989 377.5996,-355.8989 380.8333,-359.1326 380.8333,-362.3663 380.8333,-362.3663 380.8333,-368.8337 380.8333,-368.8337 380.8333,-372.0674 377.5996,-375.3011 374.3659,-375.3011"></path>
<text text-anchor="middle" x="349.9847" y="-362.3" font-family="Roboto Condensed, sans-serif" font-size="11.00" fill="#000000">bytes@2.2.0</text>
</g>
<!-- humanize&#45;bytes@1.0.1&#45;&gt;bytes@2.2.0 -->
<g id="edge18" class="edge">

<path fill="none" stroke="#000000" d="M221.3202,-319.2267C246.7777,-328.4021 285.3109,-342.2903 313.5733,-352.4766"></path>
<polygon fill="#000000" stroke="#000000" points="312.5091,-355.8134 323.1035,-355.9115 314.8826,-349.228 312.5091,-355.8134"></polygon>
</g>
<!-- glob@7.1.4 -->
<g id="node9" class="node module-glob maintainer-isaacs license-isc">

<path fill="none" stroke="#000000" d="M518.4118,-225.3011C518.4118,-225.3011 473.9713,-225.3011 473.9713,-225.3011 470.7376,-225.3011 467.5039,-222.0674 467.5039,-218.8337 467.5039,-218.8337 467.5039,-212.3663 467.5039,-212.3663 467.5039,-209.1326 470.7376,-205.8989 473.9713,-205.8989 473.9713,-205.8989 518.4118,-205.8989 518.4118,-205.8989 521.6455,-205.8989 524.8792,-209.1326 524.8792,-212.3663 524.8792,-212.3663 524.8792,-218.8337 524.8792,-218.8337 524.8792,-222.0674 521.6455,-225.3011 518.4118,-225.3011"></path>
<text text-anchor="middle" x="496.1915" y="-212.3" font-family="Roboto Condensed, sans-serif" font-size="11.00" fill="#000000">glob@7.1.4</text>
</g>
<!-- mz&#45;modules@2.1.0&#45;&gt;glob@7.1.4 -->
<g id="edge8" class="edge">

<path fill="none" stroke="#000000" d="M213.6147,-223.9261C232.6707,-214.8086 263.1367,-201.7934 291.2169,-196.6 342.5838,-187.0998 356.8131,-191.022 408.7525,-196.6 424.8162,-198.3251 442.259,-201.7843 457.3092,-205.284"></path>
<polygon fill="#000000" stroke="#000000" points="456.7582,-208.7514 467.3,-207.6924 458.3988,-201.9463 456.7582,-208.7514"></polygon>
</g>
<!-- mkdirp@0.5.1 -->
<g id="node11" class="node module-mkdirp maintainer-substack license-mit">

<path fill="none" stroke="#000000" d="M378.423,-299.3011C378.423,-299.3011 321.5464,-299.3011 321.5464,-299.3011 318.3127,-299.3011 315.079,-296.0674 315.079,-292.8337 315.079,-292.8337 315.079,-286.3663 315.079,-286.3663 315.079,-283.1326 318.3127,-279.8989 321.5464,-279.8989 321.5464,-279.8989 378.423,-279.8989 378.423,-279.8989 381.6567,-279.8989 384.8904,-283.1326 384.8904,-286.3663 384.8904,-286.3663 384.8904,-292.8337 384.8904,-292.8337 384.8904,-296.0674 381.6567,-299.3011 378.423,-299.3011"></path>
<text text-anchor="middle" x="349.9847" y="-286.3" font-family="Roboto Condensed, sans-serif" font-size="11.00" fill="#000000">mkdirp@0.5.1</text>
</g>
<!-- mz&#45;modules@2.1.0&#45;&gt;mkdirp@0.5.1 -->
<g id="edge10" class="edge">

<path fill="none" stroke="#000000" d="M217.8462,-243.3259C237.2974,-251.3259 265.8645,-262.7462 291.2169,-271.6 296.3798,-273.403 301.8308,-275.2056 307.2477,-276.9355"></path>
<polygon fill="#000000" stroke="#000000" points="306.3026,-280.3071 316.8916,-279.9555 308.3945,-273.627 306.3026,-280.3071"></polygon>
</g>
<!-- ko&#45;sleep@1.0.3 -->
<g id="node12" class="node module-ko_sleep maintainer-alsotang license-mit">

<path fill="none" stroke="#000000" d="M381.4108,-262.3011C381.4108,-262.3011 318.5586,-262.3011 318.5586,-262.3011 315.325,-262.3011 312.0913,-259.0674 312.0913,-255.8337 312.0913,-255.8337 312.0913,-249.3663 312.0913,-249.3663 312.0913,-246.1326 315.325,-242.8989 318.5586,-242.8989 318.5586,-242.8989 381.4108,-242.8989 381.4108,-242.8989 384.6444,-242.8989 387.8781,-246.1326 387.8781,-249.3663 387.8781,-249.3663 387.8781,-255.8337 387.8781,-255.8337 387.8781,-259.0674 384.6444,-262.3011 381.4108,-262.3011"></path>
<text text-anchor="middle" x="349.9847" y="-249.3" font-family="Roboto Condensed, sans-serif" font-size="11.00" fill="#000000">ko-sleep@1.0.3</text>
</g>
<!-- mz&#45;modules@2.1.0&#45;&gt;ko&#45;sleep@1.0.3 -->
<g id="edge11" class="edge">

<path fill="none" stroke="#000000" d="M240.8072,-239.2492C260.0669,-241.6044 282.4349,-244.3396 301.8912,-246.7189"></path>
<polygon fill="#000000" stroke="#000000" points="301.7135,-250.2231 312.0644,-247.9629 302.5632,-243.2749 301.7135,-250.2231"></polygon>
</g>
<!-- rimraf@2.7.1 -->
<g id="node29" class="node module-rimraf maintainer-isaacs license-isc">

<path fill="none" stroke="#000000" d="M376.1308,-225.3011C376.1308,-225.3011 323.8386,-225.3011 323.8386,-225.3011 320.6049,-225.3011 317.3713,-222.0674 317.3713,-218.8337 317.3713,-218.8337 317.3713,-212.3663 317.3713,-212.3663 317.3713,-209.1326 320.6049,-205.8989 323.8386,-205.8989 323.8386,-205.8989 376.1308,-205.8989 376.1308,-205.8989 379.3645,-205.8989 382.5981,-209.1326 382.5981,-212.3663 382.5981,-212.3663 382.5981,-218.8337 382.5981,-218.8337 382.5981,-222.0674 379.3645,-225.3011 376.1308,-225.3011"></path>
<text text-anchor="middle" x="349.9847" y="-212.3" font-family="Roboto Condensed, sans-serif" font-size="11.00" fill="#000000">rimraf@2.7.1</text>
</g>
<!-- mz&#45;modules@2.1.0&#45;&gt;rimraf@2.7.1 -->
<g id="edge29" class="edge">

<path fill="none" stroke="#000000" d="M240.8072,-228.2481C261.7749,-225.819 286.4266,-222.9632 306.9946,-220.5804"></path>
<polygon fill="#000000" stroke="#000000" points="307.5016,-224.0451 317.0323,-219.4175 306.696,-217.0916 307.5016,-224.0451"></polygon>
</g>
<!-- pump@3.0.0 -->
<g id="node30" class="node module-pump maintainer-mafintosh license-mit">

<path fill="none" stroke="#000000" d="M521.4113,-375.3011C521.4113,-375.3011 470.9718,-375.3011 470.9718,-375.3011 467.7382,-375.3011 464.5045,-372.0674 464.5045,-368.8337 464.5045,-368.8337 464.5045,-362.3663 464.5045,-362.3663 464.5045,-359.1326 467.7382,-355.8989 470.9718,-355.8989 470.9718,-355.8989 521.4113,-355.8989 521.4113,-355.8989 524.6449,-355.8989 527.8786,-359.1326 527.8786,-362.3663 527.8786,-362.3663 527.8786,-368.8337 527.8786,-368.8337 527.8786,-372.0674 524.6449,-375.3011 521.4113,-375.3011"></path>
<text text-anchor="middle" x="496.1915" y="-362.3" font-family="Roboto Condensed, sans-serif" font-size="11.00" fill="#000000">pump@3.0.0</text>
</g>
<!-- mz&#45;modules@2.1.0&#45;&gt;pump@3.0.0 -->
<g id="edge31" class="edge">

<path fill="none" stroke="#000000" d="M204.4144,-243.3783C220.921,-259.3097 255.9291,-290.8659 291.2169,-308.6 319.7593,-322.9441 403.3059,-343.9262 454.4985,-356.0278"></path>
<polygon fill="#000000" stroke="#000000" points="453.7443,-359.4459 464.2797,-358.3252 455.3449,-352.6313 453.7443,-359.4459"></polygon>
</g>
<!-- chan@0.6.1 -->
<g id="node14" class="node module-chan maintainer-brentburgoyne license-mit">

<path fill="none" stroke="#000000" d="M372.9131,-111.3011C372.9131,-111.3011 327.0563,-111.3011 327.0563,-111.3011 323.8226,-111.3011 320.5889,-108.0674 320.5889,-104.8337 320.5889,-104.8337 320.5889,-98.3663 320.5889,-98.3663 320.5889,-95.1326 323.8226,-91.8989 327.0563,-91.8989 327.0563,-91.8989 372.9131,-91.8989 372.9131,-91.8989 376.1468,-91.8989 379.3805,-95.1326 379.3805,-98.3663 379.3805,-98.3663 379.3805,-104.8337 379.3805,-104.8337 379.3805,-108.0674 376.1468,-111.3011 372.9131,-111.3011"></path>
<text text-anchor="middle" x="349.9847" y="-98.3" font-family="Roboto Condensed, sans-serif" font-size="11.00" fill="#000000">chan@0.6.1</text>
</g>
<!-- co&#45;busboy@1.4.0&#45;&gt;chan@0.6.1 -->
<g id="edge13" class="edge">

<path fill="none" stroke="#000000" d="M236.657,-116.1877C259.467,-113.2516 287.5107,-109.6417 309.9942,-106.7476"></path>
<polygon fill="#000000" stroke="#000000" points="310.7438,-110.1801 320.2151,-105.432 309.8501,-103.2374 310.7438,-110.1801"></polygon>
</g>
<!-- busboy@0.2.14 -->
<g id="node15" class="node module-busboy maintainer-mscdex license-mit">

<path fill="none" stroke="#000000" d="M381.4262,-74.3011C381.4262,-74.3011 318.5432,-74.3011 318.5432,-74.3011 315.3095,-74.3011 312.0758,-71.0674 312.0758,-67.8337 312.0758,-67.8337 312.0758,-61.3663 312.0758,-61.3663 312.0758,-58.1326 315.3095,-54.8989 318.5432,-54.8989 318.5432,-54.8989 381.4262,-54.8989 381.4262,-54.8989 384.6599,-54.8989 387.8936,-58.1326 387.8936,-61.3663 387.8936,-61.3663 387.8936,-67.8337 387.8936,-67.8337 387.8936,-71.0674 384.6599,-74.3011 381.4262,-74.3011"></path>
<text text-anchor="middle" x="349.9847" y="-61.3" font-family="Roboto Condensed, sans-serif" font-size="11.00" fill="#000000">busboy@0.2.14</text>
</g>
<!-- co&#45;busboy@1.4.0&#45;&gt;busboy@0.2.14 -->
<g id="edge14" class="edge">

<path fill="none" stroke="#000000" d="M232.2907,-111.9346C239.9967,-109.5354 247.9639,-106.7385 255.2169,-103.6 272.2169,-96.2439 274.2484,-90.0285 291.2169,-82.6 295.3422,-80.794 299.7045,-79.0943 304.1136,-77.5149"></path>
<polygon fill="#000000" stroke="#000000" points="305.4122,-80.7706 313.7666,-74.2549 303.1724,-74.1386 305.4122,-80.7706"></polygon>
</g>
<!-- black&#45;hole&#45;stream@0.0.1 -->
<g id="node16" class="node module-black_hole_stream maintainer-peerigon license-mit">

<path fill="none" stroke="#000000" d="M402.0538,-37.3011C402.0538,-37.3011 297.9156,-37.3011 297.9156,-37.3011 294.6819,-37.3011 291.4482,-34.0674 291.4482,-30.8337 291.4482,-30.8337 291.4482,-24.3663 291.4482,-24.3663 291.4482,-21.1326 294.6819,-17.8989 297.9156,-17.8989 297.9156,-17.8989 402.0538,-17.8989 402.0538,-17.8989 405.2875,-17.8989 408.5212,-21.1326 408.5212,-24.3663 408.5212,-24.3663 408.5212,-30.8337 408.5212,-30.8337 408.5212,-34.0674 405.2875,-37.3011 402.0538,-37.3011"></path>
<text text-anchor="middle" x="349.9847" y="-24.3" font-family="Roboto Condensed, sans-serif" font-size="11.00" fill="#000000">black-hole-stream@0.0.1</text>
</g>
<!-- co&#45;busboy@1.4.0&#45;&gt;black&#45;hole&#45;stream@0.0.1 -->
<g id="edge15" class="edge">

<path fill="none" stroke="#000000" d="M236.6398,-113.4883C243.2587,-111.0167 249.7204,-107.7959 255.2169,-103.6 279.333,-85.1906 267.1794,-64.112 291.2169,-45.6 293.0028,-44.2246 294.8942,-42.9536 296.8614,-41.7792"></path>
<polygon fill="#000000" stroke="#000000" points="298.5325,-44.8564 305.8808,-37.224 295.3768,-38.608 298.5325,-44.8564"></polygon>
</g>
<!-- inflight@1.0.6 -->
<g id="node21" class="node module-inflight maintainer-iarna maintainer-isaacs maintainer-othiym23 maintainer-zkat license-isc">

<path fill="none" stroke="#000000" d="M669.1151,-225.3011C669.1151,-225.3011 612.0077,-225.3011 612.0077,-225.3011 608.7741,-225.3011 605.5404,-222.0674 605.5404,-218.8337 605.5404,-218.8337 605.5404,-212.3663 605.5404,-212.3663 605.5404,-209.1326 608.7741,-205.8989 612.0077,-205.8989 612.0077,-205.8989 669.1151,-205.8989 669.1151,-205.8989 672.3487,-205.8989 675.5824,-209.1326 675.5824,-212.3663 675.5824,-212.3663 675.5824,-218.8337 675.5824,-218.8337 675.5824,-222.0674 672.3487,-225.3011 669.1151,-225.3011"></path>
<text text-anchor="middle" x="640.5614" y="-212.3" font-family="Roboto Condensed, sans-serif" font-size="11.00" fill="#000000">inflight@1.0.6</text>
</g>
<!-- glob@7.1.4&#45;&gt;inflight@1.0.6 -->
<g id="edge20" class="edge">

<path fill="none" stroke="#000000" d="M525.06,-215.6C545.1116,-215.6 572.2395,-215.6 595.166,-215.6"></path>
<polygon fill="#000000" stroke="#000000" points="595.3636,-219.1001 605.3636,-215.6 595.3635,-212.1001 595.3636,-219.1001"></polygon>
</g>
<!-- fs.realpath@1.0.0 -->
<g id="node22" class="node module-fs_realpath maintainer-isaacs license-isc">

<path fill="none" stroke="#000000" d="M676.3385,-262.3011C676.3385,-262.3011 604.7843,-262.3011 604.7843,-262.3011 601.5506,-262.3011 598.3169,-259.0674 598.3169,-255.8337 598.3169,-255.8337 598.3169,-249.3663 598.3169,-249.3663 598.3169,-246.1326 601.5506,-242.8989 604.7843,-242.8989 604.7843,-242.8989 676.3385,-242.8989 676.3385,-242.8989 679.5722,-242.8989 682.8059,-246.1326 682.8059,-249.3663 682.8059,-249.3663 682.8059,-255.8337 682.8059,-255.8337 682.8059,-259.0674 679.5722,-262.3011 676.3385,-262.3011"></path>
<text text-anchor="middle" x="640.5614" y="-249.3" font-family="Roboto Condensed, sans-serif" font-size="11.00" fill="#000000">fs.realpath@1.0.0</text>
</g>
<!-- glob@7.1.4&#45;&gt;fs.realpath@1.0.0 -->
<g id="edge21" class="edge">

<path fill="none" stroke="#000000" d="M525.06,-222.9986C544.5568,-227.9953 570.7437,-234.7067 593.2535,-240.4756"></path>
<polygon fill="#000000" stroke="#000000" points="592.4156,-243.874 602.9715,-242.9662 594.1535,-237.0931 592.4156,-243.874"></polygon>
</g>
<!-- path&#45;is&#45;absolute@1.0.1 -->
<g id="node23" class="node module-path_is_absolute maintainer-sindresorhus license-mit">

<path fill="none" stroke="#000000" d="M688.4805,-299.3011C688.4805,-299.3011 592.6423,-299.3011 592.6423,-299.3011 589.4086,-299.3011 586.1749,-296.0674 586.1749,-292.8337 586.1749,-292.8337 586.1749,-286.3663 586.1749,-286.3663 586.1749,-283.1326 589.4086,-279.8989 592.6423,-279.8989 592.6423,-279.8989 688.4805,-279.8989 688.4805,-279.8989 691.7142,-279.8989 694.9479,-283.1326 694.9479,-286.3663 694.9479,-286.3663 694.9479,-292.8337 694.9479,-292.8337 694.9479,-296.0674 691.7142,-299.3011 688.4805,-299.3011"></path>
<text text-anchor="middle" x="640.5614" y="-286.3" font-family="Roboto Condensed, sans-serif" font-size="11.00" fill="#000000">path-is-absolute@1.0.1</text>
</g>
<!-- glob@7.1.4&#45;&gt;path&#45;is&#45;absolute@1.0.1 -->
<g id="edge22" class="edge">

<path fill="none" stroke="#000000" d="M525.0793,-223.021C532.7538,-225.696 540.8001,-229.1782 547.6306,-233.6 567.1601,-246.2425 563.9113,-259.2556 583.6306,-271.6 586.1018,-273.147 588.7171,-274.5713 591.4151,-275.8813"></path>
<polygon fill="#000000" stroke="#000000" points="590.2469,-279.1883 600.8174,-279.9064 593.0019,-272.7532 590.2469,-279.1883"></polygon>
</g>
<!-- once@1.4.0 -->
<g id="node24" class="node module-once maintainer-isaacs license-isc">

<path fill="none" stroke="#000000" d="M814.2721,-337.3011C814.2721,-337.3011 768.4153,-337.3011 768.4153,-337.3011 765.1816,-337.3011 761.9479,-334.0674 761.9479,-330.8337 761.9479,-330.8337 761.9479,-324.3663 761.9479,-324.3663 761.9479,-321.1326 765.1816,-317.8989 768.4153,-317.8989 768.4153,-317.8989 814.2721,-317.8989 814.2721,-317.8989 817.5058,-317.8989 820.7395,-321.1326 820.7395,-324.3663 820.7395,-324.3663 820.7395,-330.8337 820.7395,-330.8337 820.7395,-334.0674 817.5058,-337.3011 814.2721,-337.3011"></path>
<text text-anchor="middle" x="791.3437" y="-324.3" font-family="Roboto Condensed, sans-serif" font-size="11.00" fill="#000000">once@1.4.0</text>
</g>
<!-- glob@7.1.4&#45;&gt;once@1.4.0 -->
<g id="edge23" class="edge">

<path fill="none" stroke="#000000" d="M525.0233,-221.3275C533.0434,-224.0114 541.2849,-227.9218 547.6306,-233.6 575.1844,-258.2556 553.2664,-287.502 583.6306,-308.6 633.4286,-343.2011 706.9546,-340.665 751.8589,-334.7714"></path>
<polygon fill="#000000" stroke="#000000" points="752.4027,-338.2293 761.8065,-333.349 751.4118,-331.2998 752.4027,-338.2293"></polygon>
</g>
<!-- inherits@2.0.4 -->
<g id="node25" class="node module-inherits maintainer-isaacs license-isc">

<path fill="none" stroke="#000000" d="M820.4997,-145.3011C820.4997,-145.3011 762.1877,-145.3011 762.1877,-145.3011 758.954,-145.3011 755.7203,-142.0674 755.7203,-138.8337 755.7203,-138.8337 755.7203,-132.3663 755.7203,-132.3663 755.7203,-129.1326 758.954,-125.8989 762.1877,-125.8989 762.1877,-125.8989 820.4997,-125.8989 820.4997,-125.8989 823.7334,-125.8989 826.9671,-129.1326 826.9671,-132.3663 826.9671,-132.3663 826.9671,-138.8337 826.9671,-138.8337 826.9671,-142.0674 823.7334,-145.3011 820.4997,-145.3011"></path>
<text text-anchor="middle" x="791.3437" y="-132.3" font-family="Roboto Condensed, sans-serif" font-size="11.00" fill="#000000">inherits@2.0.4</text>
</g>
<!-- glob@7.1.4&#45;&gt;inherits@2.0.4 -->
<g id="edge24" class="edge">

<path fill="none" stroke="#000000" d="M507.4461,-205.9527C523.2808,-192.981 553.5746,-170.3108 583.6306,-159.6 637.0179,-140.5748 702.5438,-135.8288 745.5454,-135.0213"></path>
<polygon fill="#000000" stroke="#000000" points="745.7472,-138.5192 755.7033,-134.8961 745.6609,-131.5197 745.7472,-138.5192"></polygon>
</g>
<!-- minimatch@3.0.4 -->
<g id="node26" class="node module-minimatch maintainer-isaacs license-isc">

<path fill="none" stroke="#000000" d="M676.7744,-188.3011C676.7744,-188.3011 604.3484,-188.3011 604.3484,-188.3011 601.1147,-188.3011 597.881,-185.0674 597.881,-181.8337 597.881,-181.8337 597.881,-175.3663 597.881,-175.3663 597.881,-172.1326 601.1147,-168.8989 604.3484,-168.8989 604.3484,-168.8989 676.7744,-168.8989 676.7744,-168.8989 680.0081,-168.8989 683.2418,-172.1326 683.2418,-175.3663 683.2418,-175.3663 683.2418,-181.8337 683.2418,-181.8337 683.2418,-185.0674 680.0081,-188.3011 676.7744,-188.3011"></path>
<text text-anchor="middle" x="640.5614" y="-175.3" font-family="Roboto Condensed, sans-serif" font-size="11.00" fill="#000000">minimatch@3.0.4</text>
</g>
<!-- glob@7.1.4&#45;&gt;minimatch@3.0.4 -->
<g id="edge25" class="edge">

<path fill="none" stroke="#000000" d="M525.06,-208.2014C544.5568,-203.2047 570.7437,-196.4933 593.2535,-190.7244"></path>
<polygon fill="#000000" stroke="#000000" points="594.1535,-194.1069 602.9715,-188.2338 592.4156,-187.326 594.1535,-194.1069"></polygon>
</g>
<!-- minimist@0.0.8 -->
<g id="node27" class="node module-minimist maintainer-substack license-mit">

<path fill="none" stroke="#000000" d="M528.4738,-299.3011C528.4738,-299.3011 463.9093,-299.3011 463.9093,-299.3011 460.6756,-299.3011 457.4419,-296.0674 457.4419,-292.8337 457.4419,-292.8337 457.4419,-286.3663 457.4419,-286.3663 457.4419,-283.1326 460.6756,-279.8989 463.9093,-279.8989 463.9093,-279.8989 528.4738,-279.8989 528.4738,-279.8989 531.7075,-279.8989 534.9412,-283.1326 534.9412,-286.3663 534.9412,-286.3663 534.9412,-292.8337 534.9412,-292.8337 534.9412,-296.0674 531.7075,-299.3011 528.4738,-299.3011"></path>
<text text-anchor="middle" x="496.1915" y="-286.3" font-family="Roboto Condensed, sans-serif" font-size="11.00" fill="#000000">minimist@0.0.8</text>
</g>
<!-- mkdirp@0.5.1&#45;&gt;minimist@0.0.8 -->
<g id="edge26" class="edge">

<path fill="none" stroke="#000000" d="M385.0049,-289.6C403.6506,-289.6 426.8824,-289.6 447.2814,-289.6"></path>
<polygon fill="#000000" stroke="#000000" points="447.3423,-293.1001 457.3422,-289.6 447.3422,-286.1001 447.3423,-293.1001"></polygon>
</g>
<!-- ms@2.1.2 -->
<g id="node34" class="node module-ms maintainer-alexaltea maintainer-anatrajkovska maintainer-andybitz maintainer-arunoda maintainer-arzafran maintainer-atcastle maintainer-b3nnyl maintainer-caarlos0 maintainer-codetheory maintainer-coetry maintainer-dav_is maintainer-fivepointseven maintainer-guybedford maintainer-hharnisc maintainer-huvik maintainer-iamevilrabbit maintainer-igorklopov maintainer-ijjk maintainer-janicklas_ralph maintainer-javivelasco maintainer-joecohens maintainer-juancampa maintainer-leo maintainer-lfades maintainer-lucleray maintainer-manovotny maintainer-marcosnils maintainer-matheuss maintainer-mfix22 maintainer-mglagola maintainer-msweeneydev maintainer-nkzawa maintainer-olliv maintainer-paco maintainer-paulogdm maintainer-quietshu maintainer-rabaut maintainer-ragojose maintainer-rauchg maintainer-sarupbanskota maintainer-skllcrn maintainer-sophearak maintainer-styfle maintainer-timer maintainer-timneutkens maintainer-tootallnate maintainer-umegaya maintainer-williamli maintainer-zeit_bot license-mit">

<path fill="none" stroke="#000000" d="M515.1889,-262.3011C515.1889,-262.3011 477.1942,-262.3011 477.1942,-262.3011 473.9605,-262.3011 470.7268,-259.0674 470.7268,-255.8337 470.7268,-255.8337 470.7268,-249.3663 470.7268,-249.3663 470.7268,-246.1326 473.9605,-242.8989 477.1942,-242.8989 477.1942,-242.8989 515.1889,-242.8989 515.1889,-242.8989 518.4226,-242.8989 521.6563,-246.1326 521.6563,-249.3663 521.6563,-249.3663 521.6563,-255.8337 521.6563,-255.8337 521.6563,-259.0674 518.4226,-262.3011 515.1889,-262.3011"></path>
<text text-anchor="middle" x="496.1915" y="-249.3" font-family="Roboto Condensed, sans-serif" font-size="11.00" fill="#000000">ms@2.1.2</text>
</g>
<!-- ko&#45;sleep@1.0.3&#45;&gt;ms@2.1.2 -->
<g id="edge37" class="edge">

<path fill="none" stroke="#000000" d="M388.0172,-252.6C410.267,-252.6 438.1973,-252.6 460.1036,-252.6"></path>
<polygon fill="#000000" stroke="#000000" points="460.3224,-256.1001 470.3223,-252.6 460.3223,-249.1001 460.3224,-256.1001"></polygon>
</g>
<!-- thenify@3.3.0 -->
<g id="node37" class="node module-thenify maintainer-jongleberry maintainer-dead_horse license-mit">

<path fill="none" stroke="#000000" d="M524.5133,-451.3011C524.5133,-451.3011 467.8698,-451.3011 467.8698,-451.3011 464.6361,-451.3011 461.4024,-448.0674 461.4024,-444.8337 461.4024,-444.8337 461.4024,-438.3663 461.4024,-438.3663 461.4024,-435.1326 464.6361,-431.8989 467.8698,-431.8989 467.8698,-431.8989 524.5133,-431.8989 524.5133,-431.8989 527.747,-431.8989 530.9807,-435.1326 530.9807,-438.3663 530.9807,-438.3663 530.9807,-444.8337 530.9807,-444.8337 530.9807,-448.0674 527.747,-451.3011 524.5133,-451.3011"></path>
<text text-anchor="middle" x="496.1915" y="-438.3" font-family="Roboto Condensed, sans-serif" font-size="11.00" fill="#000000">thenify@3.3.0</text>
</g>
<!-- thenify&#45;all@1.6.0&#45;&gt;thenify@3.3.0 -->
<g id="edge44" class="edge">

<path fill="none" stroke="#000000" d="M392.2738,-441.6C410.7752,-441.6 432.4997,-441.6 451.2888,-441.6"></path>
<polygon fill="#000000" stroke="#000000" points="451.3862,-445.1001 461.3861,-441.6 451.3861,-438.1001 451.3862,-445.1001"></polygon>
</g>
<!-- dicer@0.2.5 -->
<g id="node33" class="node module-dicer maintainer-mscdex license-mit">

<path fill="none" stroke="#000000" d="M519.8388,-74.3011C519.8388,-74.3011 472.5443,-74.3011 472.5443,-74.3011 469.3106,-74.3011 466.0769,-71.0674 466.0769,-67.8337 466.0769,-67.8337 466.0769,-61.3663 466.0769,-61.3663 466.0769,-58.1326 469.3106,-54.8989 472.5443,-54.8989 472.5443,-54.8989 519.8388,-54.8989 519.8388,-54.8989 523.0725,-54.8989 526.3062,-58.1326 526.3062,-61.3663 526.3062,-61.3663 526.3062,-67.8337 526.3062,-67.8337 526.3062,-71.0674 523.0725,-74.3011 519.8388,-74.3011"></path>
<text text-anchor="middle" x="496.1915" y="-61.3" font-family="Roboto Condensed, sans-serif" font-size="11.00" fill="#000000">dicer@0.2.5</text>
</g>
<!-- busboy@0.2.14&#45;&gt;dicer@0.2.5 -->
<g id="edge36" class="edge">

<path fill="none" stroke="#000000" d="M388.0172,-64.6C408.7182,-64.6 434.3365,-64.6 455.4454,-64.6"></path>
<polygon fill="#000000" stroke="#000000" points="455.7129,-68.1001 465.7128,-64.6 455.7128,-61.1001 455.7129,-68.1001"></polygon>
</g>
<!-- readable&#45;stream@1.1.14 -->
<g id="node36" class="node module-readable_stream maintainer-isaacs maintainer-tootallnate maintainer-rvagg maintainer-cwmma license-mit">

<path fill="none" stroke="#000000" d="M690.9557,-37.3011C690.9557,-37.3011 590.1671,-37.3011 590.1671,-37.3011 586.9334,-37.3011 583.6997,-34.0674 583.6997,-30.8337 583.6997,-30.8337 583.6997,-24.3663 583.6997,-24.3663 583.6997,-21.1326 586.9334,-17.8989 590.1671,-17.8989 590.1671,-17.8989 690.9557,-17.8989 690.9557,-17.8989 694.1894,-17.8989 697.4231,-21.1326 697.4231,-24.3663 697.4231,-24.3663 697.4231,-30.8337 697.4231,-30.8337 697.4231,-34.0674 694.1894,-37.3011 690.9557,-37.3011"></path>
<text text-anchor="middle" x="640.5614" y="-24.3" font-family="Roboto Condensed, sans-serif" font-size="11.00" fill="#000000">readable-stream@1.1.14</text>
</g>
<!-- busboy@0.2.14&#45;&gt;readable&#45;stream@1.1.14 -->
<g id="edge40" class="edge">

<path fill="none" stroke="#000000" d="M388.0958,-55.9983C405.3259,-52.358 425.9893,-48.3354 444.7525,-45.6 487.2095,-39.4103 535.1743,-34.9597 573.0052,-32.0325"></path>
<polygon fill="#000000" stroke="#000000" points="573.6861,-35.4911 583.3938,-31.2471 573.1584,-28.511 573.6861,-35.4911"></polygon>
</g>
<!-- isarray@0.0.1 -->
<g id="node28" class="node module-isarray maintainer-juliangruber license-mit">

<path fill="none" stroke="#000000" d="M818.9307,-103.3011C818.9307,-103.3011 763.7567,-103.3011 763.7567,-103.3011 760.5231,-103.3011 757.2894,-100.0674 757.2894,-96.8337 757.2894,-96.8337 757.2894,-90.3663 757.2894,-90.3663 757.2894,-87.1326 760.5231,-83.8989 763.7567,-83.8989 763.7567,-83.8989 818.9307,-83.8989 818.9307,-83.8989 822.1643,-83.8989 825.398,-87.1326 825.398,-90.3663 825.398,-90.3663 825.398,-96.8337 825.398,-96.8337 825.398,-100.0674 822.1643,-103.3011 818.9307,-103.3011"></path>
<text text-anchor="middle" x="791.3437" y="-90.3" font-family="Roboto Condensed, sans-serif" font-size="11.00" fill="#000000">isarray@0.0.1</text>
</g>
<!-- path&#45;to&#45;regexp@1.7.0&#45;&gt;isarray@0.0.1 -->
<g id="edge27" class="edge">

<path fill="none" stroke="#000000" d="M547.6031,-115.897C603.9647,-110.7411 693.4721,-102.5531 746.9044,-97.6652"></path>
<polygon fill="#000000" stroke="#000000" points="747.4497,-101.13 757.0893,-96.7335 746.812,-94.1592 747.4497,-101.13"></polygon>
</g>
<!-- inflight@1.0.6&#45;&gt;once@1.4.0 -->
<g id="edge28" class="edge">

<path fill="none" stroke="#000000" d="M675.7332,-223.8139C683.2117,-226.3444 690.8488,-229.5615 697.4922,-233.6 702.046,-236.3683 748.9687,-284.1617 774.6904,-310.5052"></path>
<polygon fill="#000000" stroke="#000000" points="772.4337,-313.2041 781.9219,-317.9185 777.4445,-308.3162 772.4337,-313.2041"></polygon>
</g>
<!-- wrappy@1.0.2 -->
<g id="node31" class="node module-wrappy maintainer-isaacs maintainer-zkat license-isc">

<path fill="none" stroke="#000000" d="M968.2235,-300.3011C968.2235,-300.3011 909.9268,-300.3011 909.9268,-300.3011 906.6931,-300.3011 903.4595,-297.0674 903.4595,-293.8337 903.4595,-293.8337 903.4595,-287.3663 903.4595,-287.3663 903.4595,-284.1326 906.6931,-280.8989 909.9268,-280.8989 909.9268,-280.8989 968.2235,-280.8989 968.2235,-280.8989 971.4572,-280.8989 974.6908,-284.1326 974.6908,-287.3663 974.6908,-287.3663 974.6908,-293.8337 974.6908,-293.8337 974.6908,-297.0674 971.4572,-300.3011 968.2235,-300.3011"></path>
<text text-anchor="middle" x="939.0751" y="-287.3" font-family="Roboto Condensed, sans-serif" font-size="11.00" fill="#000000">wrappy@1.0.2</text>
</g>
<!-- inflight@1.0.6&#45;&gt;wrappy@1.0.2 -->
<g id="edge33" class="edge">

<path fill="none" stroke="#000000" d="M675.6825,-224.424C729.7343,-238.0042 833.3211,-264.0298 893.2205,-279.0793"></path>
<polygon fill="#000000" stroke="#000000" points="892.6081,-282.5341 903.1596,-281.5764 894.3139,-275.7451 892.6081,-282.5341"></polygon>
</g>
<!-- once@1.4.0&#45;&gt;wrappy@1.0.2 -->
<g id="edge35" class="edge">

<path fill="none" stroke="#000000" d="M820.8843,-320.2014C841.6613,-314.9977 869.8631,-307.9345 893.5074,-302.0126"></path>
<polygon fill="#000000" stroke="#000000" points="894.4767,-305.3781 903.3267,-299.5533 892.776,-298.5878 894.4767,-305.3781"></polygon>
</g>
<!-- brace&#45;expansion@1.1.11 -->
<g id="node32" class="node module-brace_expansion maintainer-isaacs maintainer-juliangruber license-mit">

<path fill="none" stroke="#000000" d="M842.5797,-188.3011C842.5797,-188.3011 740.1077,-188.3011 740.1077,-188.3011 736.874,-188.3011 733.6403,-185.0674 733.6403,-181.8337 733.6403,-181.8337 733.6403,-175.3663 733.6403,-175.3663 733.6403,-172.1326 736.874,-168.8989 740.1077,-168.8989 740.1077,-168.8989 842.5797,-168.8989 842.5797,-168.8989 845.8134,-168.8989 849.0471,-172.1326 849.0471,-175.3663 849.0471,-175.3663 849.0471,-181.8337 849.0471,-181.8337 849.0471,-185.0674 845.8134,-188.3011 842.5797,-188.3011"></path>
<text text-anchor="middle" x="791.3437" y="-175.3" font-family="Roboto Condensed, sans-serif" font-size="11.00" fill="#000000">brace-expansion@1.1.11</text>
</g>
<!-- minimatch@3.0.4&#45;&gt;brace&#45;expansion@1.1.11 -->
<g id="edge34" class="edge">

<path fill="none" stroke="#000000" d="M683.3662,-178.6C695.7854,-178.6 709.6654,-178.6 723.2284,-178.6"></path>
<polygon fill="#000000" stroke="#000000" points="723.5089,-182.1001 733.5089,-178.6 723.5088,-175.1001 723.5089,-182.1001"></polygon>
</g>
<!-- rimraf@2.7.1&#45;&gt;glob@7.1.4 -->
<g id="edge30" class="edge">

<path fill="none" stroke="#000000" d="M382.7964,-215.6C404.8456,-215.6 434.0067,-215.6 457.2352,-215.6"></path>
<polygon fill="#000000" stroke="#000000" points="457.4435,-219.1001 467.4435,-215.6 457.4434,-212.1001 457.4435,-219.1001"></polygon>
</g>
<!-- pump@3.0.0&#45;&gt;once@1.4.0 -->
<g id="edge32" class="edge">

<path fill="none" stroke="#000000" d="M527.9552,-362.1052C567.656,-357.6699 637.6679,-349.6265 697.4922,-341.6 715.3404,-339.2053 735.0581,-336.3031 751.7946,-333.7634"></path>
<polygon fill="#000000" stroke="#000000" points="752.4301,-337.207 761.7868,-332.2367 751.3728,-330.2873 752.4301,-337.207"></polygon>
</g>
<!-- end&#45;of&#45;stream@1.4.4 -->
<g id="node35" class="node module-end_of_stream maintainer-mafintosh license-mit">

<path fill="none" stroke="#000000" d="M683.9121,-413.3011C683.9121,-413.3011 597.2107,-413.3011 597.2107,-413.3011 593.977,-413.3011 590.7433,-410.0674 590.7433,-406.8337 590.7433,-406.8337 590.7433,-400.3663 590.7433,-400.3663 590.7433,-397.1326 593.977,-393.8989 597.2107,-393.8989 597.2107,-393.8989 683.9121,-393.8989 683.9121,-393.8989 687.1458,-393.8989 690.3795,-397.1326 690.3795,-400.3663 690.3795,-400.3663 690.3795,-406.8337 690.3795,-406.8337 690.3795,-410.0674 687.1458,-413.3011 683.9121,-413.3011"></path>
<text text-anchor="middle" x="640.5614" y="-400.3" font-family="Roboto Condensed, sans-serif" font-size="11.00" fill="#000000">end-of-stream@1.4.4</text>
</g>
<!-- pump@3.0.0&#45;&gt;end&#45;of&#45;stream@1.4.4 -->
<g id="edge38" class="edge">

<path fill="none" stroke="#000000" d="M527.8741,-373.9393C547.221,-379.0316 572.307,-385.6346 593.8971,-391.3174"></path>
<polygon fill="#000000" stroke="#000000" points="593.2936,-394.7776 603.8551,-393.9384 595.0754,-388.0082 593.2936,-394.7776"></polygon>
</g>
<!-- concat&#45;map@0.0.1 -->
<g id="node38" class="node module-concat_map maintainer-substack license-mit">

<path fill="none" stroke="#000000" d="M977.5461,-169.3011C977.5461,-169.3011 900.6042,-169.3011 900.6042,-169.3011 897.3706,-169.3011 894.1369,-166.0674 894.1369,-162.8337 894.1369,-162.8337 894.1369,-156.3663 894.1369,-156.3663 894.1369,-153.1326 897.3706,-149.8989 900.6042,-149.8989 900.6042,-149.8989 977.5461,-149.8989 977.5461,-149.8989 980.7797,-149.8989 984.0134,-153.1326 984.0134,-156.3663 984.0134,-156.3663 984.0134,-162.8337 984.0134,-162.8337 984.0134,-166.0674 980.7797,-169.3011 977.5461,-169.3011"></path>
<text text-anchor="middle" x="939.0751" y="-156.3" font-family="Roboto Condensed, sans-serif" font-size="11.00" fill="#000000">concat-map@0.0.1</text>
</g>
<!-- brace&#45;expansion@1.1.11&#45;&gt;concat&#45;map@0.0.1 -->
<g id="edge46" class="edge">

<path fill="none" stroke="#000000" d="M849.3071,-171.1452C860.6948,-169.6806 872.6119,-168.148 883.9049,-166.6955"></path>
<polygon fill="#000000" stroke="#000000" points="884.5957,-170.1356 894.0675,-165.3885 883.7027,-163.1928 884.5957,-170.1356"></polygon>
</g>
<!-- balanced&#45;match@1.0.0 -->
<g id="node42" class="node module-balanced_match maintainer-juliangruber license-mit">

<path fill="none" stroke="#000000" d="M986.3679,-206.3011C986.3679,-206.3011 891.7824,-206.3011 891.7824,-206.3011 888.5487,-206.3011 885.315,-203.0674 885.315,-199.8337 885.315,-199.8337 885.315,-193.3663 885.315,-193.3663 885.315,-190.1326 888.5487,-186.8989 891.7824,-186.8989 891.7824,-186.8989 986.3679,-186.8989 986.3679,-186.8989 989.6016,-186.8989 992.8353,-190.1326 992.8353,-193.3663 992.8353,-193.3663 992.8353,-199.8337 992.8353,-199.8337 992.8353,-203.0674 989.6016,-206.3011 986.3679,-206.3011"></path>
<text text-anchor="middle" x="939.0751" y="-193.3" font-family="Roboto Condensed, sans-serif" font-size="11.00" fill="#000000">balanced-match@1.0.0</text>
</g>
<!-- brace&#45;expansion@1.1.11&#45;&gt;balanced&#45;match@1.0.0 -->
<g id="edge50" class="edge">

<path fill="none" stroke="#000000" d="M849.3071,-185.6624C857.7898,-186.696 866.5662,-187.7653 875.1596,-188.8124"></path>
<polygon fill="#000000" stroke="#000000" points="874.7849,-192.2925 885.1349,-190.0278 875.6316,-185.3439 874.7849,-192.2925"></polygon>
</g>
<!-- dicer@0.2.5&#45;&gt;readable&#45;stream@1.1.14 -->
<g id="edge43" class="edge">

<path fill="none" stroke="#000000" d="M526.4562,-56.8436C545.744,-51.9004 571.1426,-45.3911 593.0797,-39.7689"></path>
<polygon fill="#000000" stroke="#000000" points="594.0631,-43.1301 602.881,-37.257 592.3252,-36.3492 594.0631,-43.1301"></polygon>
</g>
<!-- streamsearch@0.1.2 -->
<g id="node39" class="node module-streamsearch maintainer-mscdex license-mit">

<path fill="none" stroke="#000000" d="M681.6329,-74.3011C681.6329,-74.3011 599.4899,-74.3011 599.4899,-74.3011 596.2562,-74.3011 593.0225,-71.0674 593.0225,-67.8337 593.0225,-67.8337 593.0225,-61.3663 593.0225,-61.3663 593.0225,-58.1326 596.2562,-54.8989 599.4899,-54.8989 599.4899,-54.8989 681.6329,-54.8989 681.6329,-54.8989 684.8666,-54.8989 688.1003,-58.1326 688.1003,-61.3663 688.1003,-61.3663 688.1003,-67.8337 688.1003,-67.8337 688.1003,-71.0674 684.8666,-74.3011 681.6329,-74.3011"></path>
<text text-anchor="middle" x="640.5614" y="-61.3" font-family="Roboto Condensed, sans-serif" font-size="11.00" fill="#000000">streamsearch@0.1.2</text>
</g>
<!-- dicer@0.2.5&#45;&gt;streamsearch@0.1.2 -->
<g id="edge47" class="edge">

<path fill="none" stroke="#000000" d="M526.4562,-64.6C542.7865,-64.6 563.4971,-64.6 582.7787,-64.6"></path>
<polygon fill="#000000" stroke="#000000" points="583.0026,-68.1001 593.0026,-64.6 583.0026,-61.1001 583.0026,-68.1001"></polygon>
</g>
<!-- end&#45;of&#45;stream@1.4.4&#45;&gt;once@1.4.0 -->
<g id="edge39" class="edge">

<path fill="none" stroke="#000000" d="M665.1975,-393.8884C675.3132,-389.7272 687.0736,-384.6644 697.4922,-379.6 721.2829,-368.0355 747.5586,-353.3001 766.2417,-342.4702"></path>
<polygon fill="#000000" stroke="#000000" points="768.1411,-345.4141 775.0124,-337.3496 764.6117,-339.3689 768.1411,-345.4141"></polygon>
</g>
<!-- readable&#45;stream@1.1.14&#45;&gt;inherits@2.0.4 -->
<g id="edge42" class="edge">

<path fill="none" stroke="#000000" d="M683.7831,-37.2521C688.7133,-39.4831 693.4215,-42.2267 697.4922,-45.6 723.5207,-67.1693 708.259,-90.1056 733.4922,-112.6 737.3761,-116.0624 741.8451,-119.0359 746.5418,-121.582"></path>
<polygon fill="#000000" stroke="#000000" points="745.2264,-124.8321 755.7602,-125.9676 748.2337,-118.511 745.2264,-124.8321"></polygon>
</g>
<!-- readable&#45;stream@1.1.14&#45;&gt;isarray@0.0.1 -->
<g id="edge41" class="edge">

<path fill="none" stroke="#000000" d="M674.9876,-37.2586C682.5087,-39.7065 690.3517,-42.5248 697.4922,-45.6 714.3028,-52.8398 717.2482,-57.1653 733.4922,-65.6 742.5323,-70.2941 752.4816,-75.201 761.5421,-79.5719"></path>
<polygon fill="#000000" stroke="#000000" points="760.0558,-82.7407 770.5869,-83.9015 763.0782,-76.4268 760.0558,-82.7407"></polygon>
</g>
<!-- core&#45;util&#45;is@1.0.2 -->
<g id="node40" class="node module-core_util_is maintainer-isaacs license-mit">

<path fill="none" stroke="#000000" d="M828.2641,-19.3011C828.2641,-19.3011 754.4233,-19.3011 754.4233,-19.3011 751.1896,-19.3011 747.9559,-16.0674 747.9559,-12.8337 747.9559,-12.8337 747.9559,-6.3663 747.9559,-6.3663 747.9559,-3.1326 751.1896,.1011 754.4233,.1011 754.4233,.1011 828.2641,.1011 828.2641,.1011 831.4978,.1011 834.7315,-3.1326 834.7315,-6.3663 834.7315,-6.3663 834.7315,-12.8337 834.7315,-12.8337 834.7315,-16.0674 831.4978,-19.3011 828.2641,-19.3011"></path>
<text text-anchor="middle" x="791.3437" y="-6.3" font-family="Roboto Condensed, sans-serif" font-size="11.00" fill="#000000">core-util-is@1.0.2</text>
</g>
<!-- readable&#45;stream@1.1.14&#45;&gt;core&#45;util&#45;is@1.0.2 -->
<g id="edge48" class="edge">

<path fill="none" stroke="#000000" d="M697.5657,-20.795C710.7267,-19.2238 724.6838,-17.5577 737.696,-16.0043"></path>
<polygon fill="#000000" stroke="#000000" points="738.381,-19.4475 747.8956,-14.7867 737.5512,-12.4968 738.381,-19.4475"></polygon>
</g>
<!-- string_decoder@0.10.31 -->
<g id="node41" class="node module-string_decoder maintainer-substack maintainer-rvagg license-mit">

<path fill="none" stroke="#000000" d="M842.3715,-56.3011C842.3715,-56.3011 740.3159,-56.3011 740.3159,-56.3011 737.0822,-56.3011 733.8485,-53.0674 733.8485,-49.8337 733.8485,-49.8337 733.8485,-43.3663 733.8485,-43.3663 733.8485,-40.1326 737.0822,-36.8989 740.3159,-36.8989 740.3159,-36.8989 842.3715,-36.8989 842.3715,-36.8989 845.6052,-36.8989 848.8389,-40.1326 848.8389,-43.3663 848.8389,-43.3663 848.8389,-49.8337 848.8389,-49.8337 848.8389,-53.0674 845.6052,-56.3011 842.3715,-56.3011"></path>
<text text-anchor="middle" x="791.3437" y="-43.3" font-family="Roboto Condensed, sans-serif" font-size="11.00" fill="#000000">string_decoder@0.10.31</text>
</g>
<!-- readable&#45;stream@1.1.14&#45;&gt;string_decoder@0.10.31 -->
<g id="edge49" class="edge">

<path fill="none" stroke="#000000" d="M697.5657,-34.7831C706.1373,-35.8632 715.0466,-36.9858 723.8126,-38.0904"></path>
<polygon fill="#000000" stroke="#000000" points="723.6493,-41.5975 734.0084,-39.3752 724.5245,-34.6524 723.6493,-41.5975"></polygon>
</g>
<!-- thenify@3.3.0&#45;&gt;any&#45;promise@1.3.0 -->
<g id="edge45" class="edge">

<path fill="none" stroke="#000000" d="M531.1395,-441.6C546.9051,-441.6 565.9341,-441.6 583.6717,-441.6"></path>
<polygon fill="#000000" stroke="#000000" points="583.9316,-445.1001 593.9316,-441.6 583.9316,-438.1001 583.9316,-445.1001"></polygon>
</g>
</g>
</svg>